<svg xmlns="http://www.w3.org/2000/svg" viewBox="0 0 2000 2000"><path d="M999.4,693H765.7v703.3a171,171,0,0,0,32.6,23,175.8,175.8,0,0,0,168.5-1,166.9,166.9,0,0,0,32.6-23.7V926.7h483.7V693H999.4Z" style="fill:#2141a5"/><path d="M1030.3,300.2H865a379.1,379.1,0,0,0-68.4,6.2c-11,2.1-21.8,4.6-32.6,7.6s-21.9,6.7-32.6,10.9l-11.5,4.6A372.9,372.9,0,0,0,521.6,527.8a368.2,368.2,0,0,0-28.9,127.4c-.3,5.9-.4,11.8-.4,17.7s.1,10,.3,15c.4,10.9,1.3,21.8,2.7,32.6a371.4,371.4,0,0,0,65.9,168.4,350.1,350.1,0,0,0,25.9,32.4l-.3.2h.5q6.9,7.7,14.1,15l8.6,8.3c3.4,3.2,6.9,6.3,10.4,9.4s9.8,8.3,14.9,12.3a371.9,371.9,0,0,0,84.6,49.8c3.8,1.6,7.6,3.2,11.5,4.6V634.4a139.9,139.9,0,0,1,32.6-57,142,142,0,0,1,32.6-25.5,137.9,137.9,0,0,1,68.4-18h747.7V300.2Z" style="fill:#2141a5"/><path d="M1259.2,1061.2a425.2,425.2,0,0,0-58.2-69.9q-11.7-11.2-24-21.6H1045.8v197.2c31,33.6,49.8,77.6,49.8,125.7s-18.8,92.1-49.8,125.7a199.2,199.2,0,0,1-65.2,46.8,208.3,208.3,0,0,1-168.5.8,202.2,202.2,0,0,1-65.2-45.6c-30.4-32.1-49.5-74-51.4-120L663,1304l-167.6,18.9-32.4,3.7A411.9,411.9,0,0,0,496.2,1459a423.1,423.1,0,0,0,93.7,134.9A431.5,431.5,0,0,0,727.7,1684c6.4,2.7,12.8,5.1,19.2,7.4,10.8,3.8,21.6,7.2,32.6,10.2s21.7,5.4,32.6,7.5a444.9,444.9,0,0,0,168.5-.3c11-2.1,21.8-4.7,32.6-7.7s21.9-6.5,32.6-10.4c5.9-2.1,11.7-4.3,17.4-6.7a431.5,431.5,0,0,0,137.8-90.1,423.1,423.1,0,0,0,93.7-134.9,417.4,417.4,0,0,0,0-332.8A421.2,421.2,0,0,0,1259.2,1061.2Z" style="fill:#2141a5"/></svg>