<?xml version="1.0" encoding="utf-8"?>
<!-- Generator: Adobe Illustrator 24.1.1, SVG Export Plug-In . SVG Version: 6.00 Build 0)  -->
<svg version="1.1" id="Calque_1" xmlns="http://www.w3.org/2000/svg" xmlns:xlink="http://www.w3.org/1999/xlink" x="0px" y="0px"
	 viewBox="0 0 128 128" style="enable-background:new 0 0 128 128;" xml:space="preserve">
<style type="text/css">
	.st0{fill:#2051A4;}
	.st1{fill:#FFFFFF;}
</style>
<g>
	<path class="st0" d="M15.1,90.9c-3.5,0-6.4-1.1-8.6-3.3c-2.2-2.2-3.2-5.3-3.2-9.3V55.7c0-4.8,0.9-8.4,2.8-10.9
		c1.9-2.5,5-3.8,9.2-3.8c2.3,0,4.4,0.4,6.2,1.3c1.8,0.9,3.2,2.1,4.3,3.8c1,1.7,1.6,3.8,1.6,6.4v8.5h-9.7v-7.2c0-1.5-0.2-2.5-0.6-3
		c-0.4-0.5-0.9-0.8-1.7-0.8c-0.9,0-1.5,0.3-1.8,1c-0.3,0.7-0.5,1.5-0.5,2.6v24.5c0,1.4,0.2,2.3,0.6,2.9c0.4,0.6,1,0.8,1.7,0.8
		c0.8,0,1.4-0.3,1.8-1c0.3-0.7,0.5-1.6,0.5-2.7v-8.8h9.9v9.3c0,4.3-1.1,7.4-3.3,9.4C22,89.9,19,90.9,15.1,90.9z"/>
	<path class="st0" d="M30.5,88.1V41.4h10.1v46.7c0,1.3-1.1,2.4-2.4,2.4h-5.4C31.6,90.4,30.5,89.4,30.5,88.1z"/>
	<path class="st0" d="M44.6,46.1v-8.3h10v8.3H44.6z M44.6,88.1V48.6h10v39.4c0,1.3-1.1,2.4-2.4,2.4H47
		C45.7,90.4,44.6,89.4,44.6,88.1z"/>
	<path class="st0" d="M77.1,89.8c-2.8,1-5.2,1.2-7.3,0.7c-2-0.5-3.7-1.6-5.1-3.3c-1.4-1.7-2.6-4-3.5-6.8l-5.4-15.9
		c-1.3-3.7-1.1-6.8,0.3-9.4c1.5-2.6,4-4.5,7.7-5.8c7.6-2.6,12.7-0.2,15.2,7.3l1,2.9c1.2,3.5,1.9,5.8,2.3,7l-13.7,4.7l2.6,7.6
		c0.2,0.7,0.5,1.4,0.8,2c0.3,0.6,0.7,1.1,1.2,1.5c0.5,0.3,1,0.4,1.7,0.2c1-0.3,1.5-1,1.4-1.9c0-0.9-0.3-2.1-0.8-3.5L75,75.5
		c-0.4-1.2,0.2-2.6,1.5-3l7.1-2.4c0,0,0.8,2.2,0.8,2.2c1,3,1.5,5.6,1.4,7.8c0,2.2-0.8,4.2-2.2,5.8C82.3,87.5,80.1,88.8,77.1,89.8z
		 M66.9,66.5l4.5-1.5c0,0-1.8-5.3-1.8-5.3c-0.5-1.4-1-2.4-1.6-2.9c-0.6-0.5-1.2-0.6-1.9-0.4c-0.8,0.3-1.2,0.8-1.4,1.5
		c-0.2,0.7-0.1,1.8,0.4,3.3C65.1,61.1,66.9,66.5,66.9,66.5z"/>
	<path class="st0" d="M86.4,88.1V41.4h10.1v46.7c0,1.3-1.1,2.4-2.4,2.4h-5.4C87.5,90.4,86.4,89.4,86.4,88.1z"/>
	<path class="st0" d="M112.4,90.9c-3.9,0-6.9-1.2-9-3.6c-2.1-2.4-3.1-5.8-3.1-10.3V53.8c0-4.2,1-7.4,3.1-9.6c2.1-2.2,5.1-3.3,9-3.3
		c4,0,7,1.1,9,3.3c2.1,2.2,3.1,5.4,3.1,9.6V77c0,4.5-1,7.9-3.1,10.3C119.3,89.7,116.3,90.9,112.4,90.9z M112.5,81.8
		c1.5,0,2.2-1.4,2.2-4.3V53.6c0-2.4-0.7-3.6-2.2-3.6c-1.6,0-2.5,1.2-2.5,3.7v23.9c0,1.5,0.2,2.6,0.6,3.3
		C111,81.5,111.6,81.8,112.5,81.8z"/>
</g>
</svg>
